<svg width="62" height="62" viewBox="0 0 62 62" fill="none" xmlns="http://www.w3.org/2000/svg">
<g filter="url(#filter0_d_152_3119)">
<path d="M3 30C3 14.536 15.536 2 31 2V2C46.464 2 59 14.536 59 30V30C59 45.464 46.464 58 31 58V58C15.536 58 3 45.464 3 30V30Z" fill="#333333"/>
<path d="M19.3333 18.3334H42.6667C44.5076 18.3334 46 19.8258 46 21.6667V38.3334C46 40.1743 44.5076 41.6667 42.6667 41.6667H19.3333C17.4924 41.6667 16 40.1743 16 38.3334V21.6667C16 19.8258 17.4924 18.3334 19.3333 18.3334Z" stroke="white" stroke-width="1.8" stroke-linecap="round" stroke-linejoin="round"/>
<path d="M44.3334 20.0001L33.3571 30.9764C32.0554 32.2782 29.9448 32.2782 28.6431 30.9764L17.6667 20.0001" stroke="white" stroke-width="1.8" stroke-linecap="round" stroke-linejoin="round"/>
</g>
<defs>
<filter id="filter0_d_152_3119" x="0" y="0" width="62" height="62" filterUnits="userSpaceOnUse" color-interpolation-filters="sRGB">
<feFlood flood-opacity="0" result="BackgroundImageFix"/>
<feColorMatrix in="SourceAlpha" type="matrix" values="0 0 0 0 0 0 0 0 0 0 0 0 0 0 0 0 0 0 127 0" result="hardAlpha"/>
<feOffset dy="1"/>
<feGaussianBlur stdDeviation="1.5"/>
<feComposite in2="hardAlpha" operator="out"/>
<feColorMatrix type="matrix" values="0 0 0 0 0 0 0 0 0 0 0 0 0 0 0 0 0 0 0.3 0"/>
<feBlend mode="normal" in2="BackgroundImageFix" result="effect1_dropShadow_152_3119"/>
<feBlend mode="normal" in="SourceGraphic" in2="effect1_dropShadow_152_3119" result="shape"/>
</filter>
</defs>
</svg>
